<svg width="16" height="12" viewBox="0 0 16 12" fill="none" xmlns="http://www.w3.org/2000/svg">
<path d="M2.35938 0.75H14.5469C15.3086 0.75 15.9531 1.39453 15.9531 2.15625C15.9531 2.625 15.7188 3.03516 15.3672 3.29883L9.00977 8.07422C8.6582 8.33789 8.21875 8.33789 7.86719 8.07422L1.50977 3.29883C1.1582 3.03516 0.953125 2.625 0.953125 2.15625C0.953125 1.39453 1.56836 0.75 2.35938 0.75ZM0.953125 4.03125L7.31055 8.83594C7.98438 9.33398 8.89258 9.33398 9.56641 8.83594L15.9531 4.03125V10.125C15.9531 11.1797 15.1035 12 14.0781 12H2.82812C1.77344 12 0.953125 11.1797 0.953125 10.125V4.03125Z" fill="#17A638"/>
</svg>
