<svg width="20" height="21" viewBox="0 0 20 21" fill="none" xmlns="http://www.w3.org/2000/svg">
<path d="M8.71094 1.98438L8.16406 3.85938C8.04688 4.32812 7.69531 4.67969 7.30469 4.875C6.99219 5.03125 6.71875 5.1875 6.44531 5.34375C6.09375 5.61719 5.58594 5.73438 5.11719 5.61719L3.24219 5.14844C3.16406 5.14844 3.125 5.14844 3.08594 5.14844C2.85156 5.42188 2.65625 5.69531 2.5 6.00781L2.30469 6.28125C2.14844 6.59375 1.99219 6.90625 1.875 7.21875C1.875 7.25781 1.91406 7.33594 1.95312 7.375L3.32031 8.74219C3.63281 9.09375 3.78906 9.60156 3.75 10.0312C3.75 10.1875 3.75 10.3438 3.75 10.5C3.75 10.6953 3.75 10.8516 3.75 11.0078C3.78906 11.4375 3.63281 11.9062 3.32031 12.2578L1.95312 13.6641C1.91406 13.7031 1.875 13.7812 1.875 13.8203C1.99219 14.1328 2.14844 14.4453 2.30469 14.7578L2.46094 15.0312C2.65625 15.3047 2.85156 15.6172 3.04688 15.8906C3.125 15.8906 3.16406 15.8906 3.24219 15.8906L5.11719 15.4219C5.58594 15.3047 6.09375 15.4219 6.44531 15.6562C6.71875 15.8516 6.99219 16.0078 7.30469 16.1641C7.69531 16.3594 8.04688 16.7109 8.16406 17.1797L8.71094 19.0547C8.71094 19.0938 8.75 19.1328 8.78906 19.1719C9.17969 19.25 9.57031 19.25 10 19.25C10.3906 19.25 10.7812 19.25 11.1719 19.1719C11.2109 19.1328 11.25 19.0938 11.25 19.0547L11.7969 17.1797C11.9141 16.7109 12.2656 16.3594 12.6562 16.1641C12.9688 16.0078 13.2422 15.8516 13.5156 15.6562C13.9062 15.4219 14.375 15.3047 14.8438 15.4219L16.7188 15.8906C16.7969 15.8906 16.8359 15.8906 16.9141 15.8906C17.1094 15.6172 17.3047 15.3047 17.5 15.0312L17.6562 14.7578C17.8125 14.4453 17.9688 14.1328 18.0859 13.8203C18.0859 13.7812 18.0469 13.7031 18.0078 13.6641L16.6406 12.2578C16.3281 11.9062 16.1719 11.4375 16.2109 11.0078C16.2109 10.8516 16.25 10.6953 16.25 10.5C16.25 10.3438 16.2109 10.1875 16.2109 10.0312C16.1719 9.60156 16.3281 9.09375 16.6406 8.74219L18.0078 7.375C18.0469 7.33594 18.0859 7.25781 18.0859 7.21875C17.9688 6.90625 17.8125 6.59375 17.6562 6.28125L17.5 6.00781C17.3047 5.69531 17.1094 5.42188 16.9141 5.14844C16.8359 5.14844 16.7969 5.14844 16.7188 5.14844L14.8438 5.61719C14.375 5.73438 13.9062 5.61719 13.5156 5.38281C13.2422 5.1875 12.9688 5.03125 12.6562 4.875C12.2656 4.67969 11.9141 4.32812 11.7969 3.85938L11.25 1.98438C11.25 1.94531 11.2109 1.86719 11.1719 1.82812C10.7812 1.78906 10.3906 1.75 10 1.75C9.57031 1.75 9.17969 1.78906 8.78906 1.82812C8.75 1.86719 8.71094 1.94531 8.71094 1.98438ZM10 0.5C10.5078 0.5 10.9766 0.539062 11.4844 0.617188C11.5625 0.65625 11.6016 0.65625 11.6797 0.695312C12.0312 0.890625 12.3438 1.24219 12.4609 1.63281L13.0078 3.50781C13.0078 3.58594 13.0859 3.70312 13.2031 3.74219C13.5547 3.89844 13.9062 4.09375 14.2188 4.32812C14.3359 4.40625 14.4531 4.44531 14.5312 4.40625L16.4453 3.9375C16.8359 3.82031 17.3047 3.89844 17.6562 4.13281C17.6953 4.17188 17.7344 4.21094 17.8125 4.28906C18.0859 4.60156 18.3203 4.99219 18.5547 5.38281L18.75 5.65625V5.69531C18.9453 6.08594 19.1406 6.47656 19.2969 6.86719C19.3359 6.94531 19.3359 6.98438 19.3359 7.0625C19.375 7.49219 19.2188 7.92188 18.9062 8.23438L17.5391 9.64062C17.5 9.67969 17.4609 9.79688 17.4609 9.91406C17.4609 10.1094 17.5 10.3047 17.5 10.5C17.5 10.6953 17.4609 10.8906 17.4609 11.0859C17.4609 11.2422 17.5 11.3594 17.5391 11.3984L18.9062 12.8047C19.2188 13.1172 19.375 13.5469 19.3359 13.9766C19.3359 14.0156 19.3359 14.0938 19.2969 14.1719C19.1406 14.5625 18.9453 14.9531 18.75 15.3438L18.5547 15.6562C18.3203 16.0469 18.0859 16.3984 17.7734 16.75C17.7344 16.8281 17.6953 16.8672 17.6562 16.9062C17.3047 17.1406 16.8359 17.2188 16.4062 17.1016L14.5312 16.6328C14.4531 16.5938 14.3359 16.6328 14.2188 16.7109C13.9062 16.9062 13.5547 17.1016 13.2031 17.2969C13.0859 17.3359 13.0078 17.4531 13.0078 17.5312L12.4609 19.3672C12.3438 19.7969 12.0312 20.1484 11.6797 20.3438C11.6016 20.3828 11.5625 20.3828 11.4844 20.4219C10.9766 20.4609 10.5078 20.5 10 20.5C9.49219 20.5 8.98438 20.4609 8.47656 20.4219C8.39844 20.3828 8.35938 20.3828 8.28125 20.3438C7.92969 20.1484 7.61719 19.7969 7.5 19.3672L6.95312 17.5312C6.95312 17.4531 6.875 17.3359 6.75781 17.2969C6.40625 17.1406 6.05469 16.9453 5.74219 16.7109C5.625 16.6328 5.50781 16.6328 5.42969 16.6328L3.55469 17.1016C3.125 17.2188 2.69531 17.1406 2.34375 16.9062C2.26562 16.8672 2.22656 16.8281 2.1875 16.7891C1.875 16.4375 1.64062 16.0469 1.40625 15.6562L1.25 15.3828L1.21094 15.3438C1.01562 14.9531 0.820312 14.5625 0.664062 14.1719C0.664062 14.0938 0.625 14.0547 0.625 13.9766C0.625 13.5469 0.742188 13.1172 1.05469 12.8047L2.42188 11.3984C2.46094 11.3594 2.5 11.2422 2.5 11.0859C2.5 10.9297 2.5 10.6953 2.5 10.5C2.5 10.3047 2.5 10.1094 2.5 9.91406C2.5 9.79688 2.46094 9.67969 2.42188 9.64062L1.05469 8.23438C0.742188 7.92188 0.625 7.49219 0.625 7.0625C0.625 6.98438 0.664062 6.94531 0.664062 6.86719C0.820312 6.47656 1.01562 6.08594 1.21094 5.69531L1.25 5.65625L1.40625 5.38281C1.64062 4.99219 1.91406 4.60156 2.1875 4.28906C2.22656 4.21094 2.26562 4.17188 2.34375 4.13281C2.69531 3.89844 3.125 3.82031 3.55469 3.9375L5.42969 4.40625C5.50781 4.44531 5.625 4.40625 5.74219 4.32812C6.05469 4.13281 6.40625 3.89844 6.75781 3.74219C6.875 3.70312 6.95312 3.58594 6.95312 3.50781L7.5 1.63281C7.61719 1.24219 7.92969 0.890625 8.28125 0.695312C8.35938 0.65625 8.39844 0.65625 8.47656 0.617188C8.98438 0.539062 9.49219 0.5 10 0.5ZM7.8125 10.5C7.8125 11.3203 8.20312 12.0234 8.90625 12.4141C9.57031 12.8047 10.3906 12.8047 11.0938 12.4141C11.7578 12.0234 12.1875 11.3203 12.1875 10.5C12.1875 9.71875 11.7578 9.01562 11.0938 8.625C10.3906 8.23438 9.57031 8.23438 8.90625 8.625C8.20312 9.01562 7.8125 9.71875 7.8125 10.5ZM13.4375 10.5C13.4375 11.75 12.7734 12.8828 11.7188 13.5078C10.625 14.0938 9.33594 14.0938 8.28125 13.5078C7.1875 12.8828 6.5625 11.75 6.5625 10.5C6.5625 9.28906 7.1875 8.15625 8.28125 7.53125C9.33594 6.94531 10.625 6.94531 11.7188 7.53125C12.7734 8.15625 13.4375 9.28906 13.4375 10.5Z" fill="url(#paint0_linear_353_153)"/>
<defs>
<linearGradient id="paint0_linear_353_153" x1="1.60959e-07" y1="2.57143" x2="20.6958" y2="9.82402" gradientUnits="userSpaceOnUse">
<stop stop-color="#17A638"/>
<stop offset="1" stop-color="#EFD600"/>
</linearGradient>
</defs>
</svg>
