<svg width="20" height="20" viewBox="0 0 20 20" fill="none" xmlns="http://www.w3.org/2000/svg">
<path d="M11.0769 1.25V10C11.0769 10.7031 10.491 11.25 9.82692 11.25C9.1238 11.25 8.57692 10.7031 8.57692 10V1.25C8.57692 0.585938 9.1238 0 9.82692 0C10.491 0 11.0769 0.585938 11.0769 1.25ZM5.41286 4.72656C3.88942 5.97656 2.91286 7.89062 2.91286 10C2.91286 13.8281 5.9988 16.875 9.78786 16.875C13.616 16.875 16.6629 13.8281 16.6629 10C16.6629 7.89062 15.7254 5.97656 14.2019 4.72656C13.655 4.29688 13.616 3.47656 14.0457 2.96875C14.4754 2.42188 15.2566 2.38281 15.8035 2.8125C17.8738 4.53125 19.2019 7.10938 19.2019 10C19.2019 15.1953 14.9832 19.375 9.82692 19.375C4.63161 19.375 0.451923 15.1953 0.451923 10C0.451923 7.10938 1.74099 4.53125 3.8113 2.8125C4.35817 2.38281 5.13942 2.42188 5.56911 2.96875C5.9988 3.51562 5.95974 4.29688 5.41286 4.72656Z" fill="#F8F7F7"/>
</svg>
