<svg width="25" height="21" viewBox="0 0 25 21" fill="none" xmlns="http://www.w3.org/2000/svg">
<path d="M11.7188 3.54688L11.5625 3.82031L11.25 3.85938L9.57031 4.13281L10.7812 5.30469L11.0156 5.53906L10.9766 5.89062L10.6641 7.57031L12.1875 6.75L12.5 6.59375L12.7734 6.75L14.2969 7.57031L14.0234 5.85156L13.9453 5.53906L14.1797 5.30469L15.4297 4.13281L13.7109 3.89844L13.3984 3.82031L13.2422 3.54688L12.5 1.98438L11.7188 3.54688ZM11.5234 1.125C11.9141 0.304688 13.0469 0.34375 13.4375 1.125L14.2188 2.6875L15.9375 2.92188C16.7969 3.07812 17.1875 4.13281 16.5625 4.75781H16.5234L15.2734 5.96875L15.5859 7.6875C15.7031 8.54688 14.8047 9.21094 14.0234 8.82031L12.5 8L10.9375 8.82031V8.85938C10.1562 9.25 9.25781 8.58594 9.375 7.72656V7.6875L9.6875 6.00781L8.4375 4.75781C7.77344 4.13281 8.16406 3.07812 9.02344 2.92188L10.7422 2.6875L11.5234 1.125ZM7.5 14.875V18.625C7.5 19.6797 6.64062 20.5 5.625 20.5H1.875C0.820312 20.5 0 19.6797 0 18.625V14.875C0 13.8594 0.820312 13 1.875 13H5.625C6.64062 13 7.5 13.8594 7.5 14.875ZM16.25 17.375V18.625C16.25 19.6797 15.3906 20.5 14.375 20.5H10.625C9.57031 20.5 8.75 19.6797 8.75 18.625V14.875V12.375C8.75 11.3594 9.57031 10.5 10.625 10.5H14.375C15.3906 10.5 16.25 11.3594 16.25 12.375V17.375ZM10 12.375V18.625C10 18.9766 10.2734 19.25 10.625 19.25H14.375C14.6875 19.25 15 18.9766 15 18.625V12.375C15 12.0625 14.6875 11.75 14.375 11.75H10.625C10.2734 11.75 10 12.0625 10 12.375ZM1.25 14.875V18.625C1.25 18.9766 1.52344 19.25 1.875 19.25H5.625C5.9375 19.25 6.25 18.9766 6.25 18.625V14.875C6.25 14.5625 5.9375 14.25 5.625 14.25H1.875C1.52344 14.25 1.25 14.5625 1.25 14.875ZM18.75 17.375V18.625C18.75 18.9766 19.0234 19.25 19.375 19.25H23.125C23.4375 19.25 23.75 18.9766 23.75 18.625V17.375C23.75 17.0625 23.4375 16.75 23.125 16.75H19.375C19.0234 16.75 18.75 17.0625 18.75 17.375ZM19.375 15.5H23.125C24.1406 15.5 25 16.3594 25 17.375V18.625C25 19.6797 24.1406 20.5 23.125 20.5H19.375C18.3203 20.5 17.5 19.6797 17.5 18.625V17.375C17.5 16.3594 18.3203 15.5 19.375 15.5Z" fill="#1D1D1B"/>
</svg>
