<svg width="24" height="21" viewBox="0 0 24 21" fill="none" xmlns="http://www.w3.org/2000/svg">
<path d="M12.6406 0.65625L23.2656 10.0312C23.5391 10.2656 23.5391 10.6562 23.3438 10.9297C23.1094 11.2031 22.7188 11.2031 22.4453 10.9688L21 9.67969V17.375C21 19.1328 19.5938 20.5 17.875 20.5H6.625C4.86719 20.5 3.5 19.1328 3.5 17.375V9.67969L2.01562 10.9688C1.78125 11.2031 1.35156 11.2031 1.15625 10.9297C0.921875 10.6562 0.921875 10.2656 1.19531 10.0312L11.8203 0.65625C12.0547 0.460938 12.4062 0.460938 12.6406 0.65625ZM4.75 17.375C4.75 18.4297 5.57031 19.25 6.625 19.25H9.125V13C9.125 12.3359 9.67188 11.75 10.375 11.75H14.125C14.7891 11.75 15.375 12.3359 15.375 13V19.25H17.875C18.8906 19.25 19.75 18.4297 19.75 17.375V8.58594L12.25 1.98438L4.75 8.58594V17.375ZM10.375 19.25H14.125V13H10.375V19.25Z" fill="#1D1D1B"/>
</svg>
