<svg width="15" height="16" viewBox="0 0 15 16" fill="none" xmlns="http://www.w3.org/2000/svg">
<path d="M5.10938 5.09375V6.5H9.79688V5.09375C9.79688 3.80469 8.74219 2.75 7.45312 2.75C6.13477 2.75 5.10938 3.80469 5.10938 5.09375ZM3.23438 6.5V5.09375C3.23438 2.7793 5.10938 0.875 7.45312 0.875C9.76758 0.875 11.6719 2.7793 11.6719 5.09375V6.5H12.1406C13.166 6.5 14.0156 7.34961 14.0156 8.375V14C14.0156 15.0547 13.166 15.875 12.1406 15.875H2.76562C1.71094 15.875 0.890625 15.0547 0.890625 14V8.375C0.890625 7.34961 1.71094 6.5 2.76562 6.5H3.23438Z" fill="#17A638"/>
</svg>
