<svg width="15" height="16" viewBox="0 0 15 16" fill="none" xmlns="http://www.w3.org/2000/svg">
<path d="M7.45312 8.375C6.10547 8.375 4.875 7.67188 4.20117 6.5C3.52734 5.35742 3.52734 3.92188 4.20117 2.75C4.875 1.60742 6.10547 0.875 7.45312 0.875C8.77148 0.875 10.002 1.60742 10.6758 2.75C11.3496 3.92188 11.3496 5.35742 10.6758 6.5C10.002 7.67188 8.77148 8.375 7.45312 8.375ZM6.10547 9.78125H8.77148C11.6719 9.78125 14.0156 12.125 14.0156 15.0254C14.0156 15.4941 13.6055 15.875 13.1367 15.875H1.74023C1.27148 15.875 0.890625 15.4941 0.890625 15.0254C0.890625 12.125 3.20508 9.78125 6.10547 9.78125Z" fill="#1D1D1B"/>
</svg>
