<svg width="15" height="16" viewBox="0 0 15 16" fill="none" xmlns="http://www.w3.org/2000/svg">
<path d="M4.8457 1.40234C4.99219 1.08008 5.31445 0.875 5.66602 0.875H9.21094C9.5625 0.875 9.88477 1.08008 10.0312 1.40234L10.2656 1.8125H13.0781C13.5762 1.8125 14.0156 2.25195 14.0156 2.75C14.0156 3.27734 13.5762 3.6875 13.0781 3.6875H1.82812C1.30078 3.6875 0.890625 3.27734 0.890625 2.75C0.890625 2.25195 1.30078 1.8125 1.82812 1.8125H4.64062L4.8457 1.40234ZM13.0781 4.625L12.4336 14.5566C12.4043 15.3184 11.7891 15.875 11.0273 15.875H3.84961C3.08789 15.875 2.47266 15.3184 2.44336 14.5566L1.82812 4.625H13.0781Z" fill="#17A638"/>
</svg>
