<svg width="635" height="751" viewBox="0 0 635 751" fill="none" xmlns="http://www.w3.org/2000/svg">
<path d="M270.896 404.602C286.326 349.075 345.583 319.851 405.114 290.532C525.043 231.423 589.184 264.23 620.41 216.434C660.356 155.298 614.247 11.8618 531.069 -21.5108C424.242 -64.4049 321.753 100.572 228.667 55.8871C137.956 12.3803 167.311 -176.731 85.0907 -197.282C43.0449 -207.794 0.222931 -167.162 -13.6097 -154.058C-126.417 -46.9644 -48.123 143.278 -130.252 191.781C-192.202 228.359 -263.83 136.113 -321.626 173.257C-390.561 217.518 -391.52 414.642 -307.246 474.505C-218.726 537.385 -106.238 399.04 13.3252 457.3C143.937 520.982 124.26 741.815 212.461 750.724C260.396 755.579 317.826 695.527 330.335 636.371C350.24 542.051 247.522 488.74 270.896 404.602Z" fill="url(#paint0_linear_338_9259)"/>
<defs>
<linearGradient id="paint0_linear_338_9259" x1="462.211" y1="-97.9081" x2="-187.481" y2="589.026" gradientUnits="userSpaceOnUse">
<stop stop-color="#17A638"/>
<stop offset="0.87" stop-color="#EFD600"/>
</linearGradient>
</defs>
</svg>
