<svg width="386" height="328" viewBox="0 0 386 328" fill="none" xmlns="http://www.w3.org/2000/svg">
<path d="M426.103 348.591C535.86 280.144 622.002 335.715 663.121 276.933C700.742 223.23 671.074 116.473 606.466 56.1004C548.586 1.99587 467.463 -10.3465 408.735 8.32861C346.618 28.0983 355.732 67.8625 296.072 85.4072C210.194 110.715 147.154 41.1992 90.7758 78.6954C62.6901 97.352 54.1486 130.392 51.9214 140.756C29.6575 244.345 146.626 322.165 119.119 380.915C98.3698 425.198 22.7288 400.285 4.4918 443.337C-17.2367 494.645 57.8671 606.568 128.195 608.351C141.47 608.676 171.225 608.872 301.665 476.546C398.282 378.544 388.93 371.819 426.123 348.62L426.103 348.591Z" fill="url(#paint0_linear_338_9260)"/>
<defs>
<linearGradient id="paint0_linear_338_9260" x1="385.786" y1="-15.744" x2="277.311" y2="633.886" gradientUnits="userSpaceOnUse">
<stop stop-color="#17A638"/>
<stop offset="0.87" stop-color="#EFD600"/>
</linearGradient>
</defs>
</svg>
