<svg width="720" height="703" viewBox="0 0 720 703" fill="none" xmlns="http://www.w3.org/2000/svg">
<path d="M623.133 376.759C638.089 324.621 695.524 297.181 753.225 269.651C869.467 214.15 931.637 244.955 961.903 200.076C1000.62 142.672 955.929 7.99101 875.308 -23.3445C771.765 -63.6204 672.426 91.2868 582.203 49.3291C494.28 8.47787 522.732 -169.09 443.039 -188.387C402.286 -198.257 360.781 -160.105 347.373 -147.801C238.034 -47.2445 313.921 131.386 234.317 176.928C174.271 211.274 104.844 124.658 48.8252 159.535C-17.9908 201.094 -18.92 386.186 62.7636 442.395C148.562 501.437 257.592 371.536 373.48 426.241C500.076 486.035 481.005 693.389 566.494 701.754C612.956 706.313 668.621 649.927 680.745 594.381C700.038 505.819 600.477 455.761 623.133 376.759Z" fill="url(#paint0_linear_338_9249)"/>
<defs>
<linearGradient id="paint0_linear_338_9249" x1="808.567" y1="-95.0787" x2="199.914" y2="569.228" gradientUnits="userSpaceOnUse">
<stop stop-color="#17A638"/>
<stop offset="0.87" stop-color="#EFD600"/>
</linearGradient>
</defs>
</svg>
