<svg width="372" height="457" viewBox="0 0 372 457" fill="none" xmlns="http://www.w3.org/2000/svg">
<path d="M374.241 12.2508C349.698 -114.75 432.46 -175.24 392.328 -234.7C355.684 -289.075 245.388 -299.657 165.865 -260.99C94.6051 -226.357 53.9976 -155.053 50.3746 -93.5333C46.5584 -28.4576 86.9467 -22.709 81.9345 39.2749C74.7689 128.517 -12.7276 162.442 2.06202 228.516C9.40842 261.423 37.1893 281.243 46.0655 287.038C134.785 344.962 249.369 263.673 294.351 310.415C328.25 345.661 277.873 407.341 311.524 439.802C351.631 478.481 483.039 448.499 509.919 383.487C514.982 371.211 525.834 343.504 449.074 174.292C392.228 48.9619 382.597 55.2811 374.276 12.2427L374.241 12.2508Z" fill="url(#paint0_linear_338_9247)"/>
<defs>
<linearGradient id="paint0_linear_338_9247" x1="19.6742" y1="-80.7406" x2="587.221" y2="253.44" gradientUnits="userSpaceOnUse">
<stop stop-color="#17A638"/>
<stop offset="0.87" stop-color="#EFD600"/>
</linearGradient>
</defs>
</svg>
